HIERARCHY
ROOT hip
{
	OFFSET 0.000000 0.000000 0.000000
	CHANNELS 6 Xposition Yposition Zposition Zrotation Yrotation Xrotation 
	JOINT lhipjoint
	{
		OFFSET 0.000000 0.000000 0.000000
		CHANNELS 3 Zrotation Yrotation Xrotation
		JOINT lfemur
		{
			OFFSET 1.363060 -1.794630 0.839290
			CHANNELS 3 Zrotation Yrotation Xrotation
			JOINT ltibia
			{
				OFFSET 2.448110 -6.726130 0.000000
				CHANNELS 3 Zrotation Yrotation Xrotation
				JOINT lfoot
				{
					OFFSET 2.562200 -7.039590 0.000000
					CHANNELS 3 Zrotation Yrotation Xrotation
					JOINT ltoes
					{
						OFFSET 0.157640 -0.433110 2.322550
						CHANNELS 3 Zrotation Yrotation Xrotation
						End Site
						{
							OFFSET 0.000000 0.000000 0.000000
						}
					}
				}
			}
		}
	}
	JOINT rhipjoint
	{
		OFFSET 0.000000 0.000000 0.000000
		CHANNELS 3 Zrotation Yrotation Xrotation
		JOINT rfemur
		{
			OFFSET -1.305520 -1.794630 0.839290
			CHANNELS 3 Zrotation Yrotation Xrotation
			JOINT rtibia
			{
				OFFSET -2.542530 -6.985550 0.000000
				CHANNELS 3 Zrotation Yrotation Xrotation
				JOINT rfoot
				{
					OFFSET -2.568260 -7.056230 0.000000
					CHANNELS 3 Zrotation Yrotation Xrotation
					JOINT rtoes
					{
						OFFSET -0.164730 -0.452590 2.363150
						CHANNELS 3 Zrotation Yrotation Xrotation
						End Site
						{
							OFFSET 0.000000 0.000000 0.000000
						}
					}
				}
			}
		}
	}
	JOINT lowerback
	{
		OFFSET 0.000000 0.000000 0.000000
		CHANNELS 3 Zrotation Yrotation Xrotation
		JOINT upperback
		{
			OFFSET 0.028270 2.035590 -0.193380
			CHANNELS 3 Zrotation Yrotation Xrotation
			JOINT thorax
			{
				OFFSET 0.056720 2.048850 -0.042750
				CHANNELS 3 Zrotation Yrotation Xrotation
				JOINT lowerneck
				{
					OFFSET 0.000000 0.000000 0.000000
					CHANNELS 3 Zrotation Yrotation Xrotation
					JOINT upperneck
					{
						OFFSET -0.054170 1.746240 0.172020
						CHANNELS 3 Zrotation Yrotation Xrotation
						JOINT head
						{
							OFFSET 0.104070 1.761360 -0.123970
							CHANNELS 3 Zrotation Yrotation Xrotation
							End Site
							{
								OFFSET 0.000000 0.000000 0.000000
							}
						}
					}
				}
				JOINT lclavicle
				{
					OFFSET 0.000000 0.000000 0.000000
					CHANNELS 3 Zrotation Yrotation Xrotation
					JOINT lhumerus
					{
						OFFSET 3.362410 1.200890 -0.311210
						CHANNELS 3 Zrotation Yrotation Xrotation
						JOINT lradius
						{
							OFFSET 4.983000 -0.000000 -0.000000
							CHANNELS 3 Zrotation Yrotation Xrotation
							JOINT lwrist
							{
								OFFSET 3.483560 -0.000000 -0.000000
								CHANNELS 3 Zrotation Yrotation Xrotation
								JOINT lhand
								{
									OFFSET 0.000000 0.000000 0.000000
									CHANNELS 3 Zrotation Yrotation Xrotation
									JOINT lfingers
									{
										OFFSET 0.715260 -0.000000 -0.000000
										CHANNELS 3 Zrotation Yrotation Xrotation
										End Site
										{
											OFFSET 0.000000 0.000000 0.000000
										}
									}
								}
								JOINT lthumb
								{
									OFFSET 0.000000 0.000000 0.000000
									CHANNELS 3 Zrotation Yrotation Xrotation
									End Site
									{
										OFFSET 0.000000 0.000000 0.000000
									}
								}
							}
						}
					}
				}
				JOINT rclavicle
				{
					OFFSET 0.000000 0.000000 0.000000
					CHANNELS 3 Zrotation Yrotation Xrotation
					JOINT rhumerus
					{
						OFFSET -3.136600 1.374050 -0.404650
						CHANNELS 3 Zrotation Yrotation Xrotation
						JOINT rradius
						{
							OFFSET -5.241900 -0.000000 -0.000000
							CHANNELS 3 Zrotation Yrotation Xrotation
							JOINT rwrist
							{
								OFFSET -3.444170 -0.000000 -0.000000
								CHANNELS 3 Zrotation Yrotation Xrotation
								JOINT rhand
								{
									OFFSET 0.000000 0.000000 0.000000
									CHANNELS 3 Zrotation Yrotation Xrotation
									JOINT rfingers
									{
										OFFSET -0.622530 -0.000000 -0.000000
										CHANNELS 3 Zrotation Yrotation Xrotation
										End Site
										{
											OFFSET 0.000000 0.000000 0.000000
										}
									}
								}
								JOINT rthumb
								{
									OFFSET 0.000000 0.000000 0.000000
									CHANNELS 3 Zrotation Yrotation Xrotation
									End Site
									{
										OFFSET 0.000000 0.000000 0.000000
									}
								}
							}
						}
					}
				}
			}
		}
	}
}
MOTION
Frames: 8
Frame Time: 0.008333
0.538633 16.771270 2.881192 -176.341212 5.509869 -173.969131 -4.940132 -2.282192 -0.956996 -8.536435 1.474569 -27.036038 6.387210 14.100295 43.802179 0.607634 -10.284000 -13.147089 0.017900 -0.863700 -2.373700 3.357656 2.324275 -1.384014 18.967189 -10.243979 -29.271087 -7.098386 -13.761140 42.697180 1.939560 30.457642 -0.361397 -0.000000 0.035500 -0.097500 -0.076574 0.859676 6.439980 0.634342 2.802596 -3.021538 -4.108132 1.541570 9.995165 -2.835885 -2.668992 -12.301610 0.769214 -2.822448 16.964430 -1.648800 -1.140500 4.610200 -4.554511 -3.433583 3.009978 -76.614271 -1.173872 26.836815 11.988943 -25.163934 -3.083964 0.478200 0.999895 32.714047 16.523858 -7.700274 -2.634000 -7.125000 0.000000 0.000000 -7.361300 20.793500 4.303600 5.827147 3.759971 3.854587 78.738099 -1.367335 19.470218 -12.194487 32.510091 -3.017855 0.204427 -1.953287 4.925686 -6.992782 4.718461 -0.858800 7.125000 0.000000 0.000000 14.185800 -23.304700 7.645200 
0.516776 16.771001 2.878594 -176.223529 5.551469 -173.971032 -4.927514 -2.277860 -0.954912 -8.493543 1.550704 -27.067895 6.396187 14.112968 43.850517 0.602930 -10.446190 -13.126070 0.017500 -0.853800 -2.346500 3.332891 2.315559 -1.391562 19.005291 -9.665447 -28.947186 -7.092531 -13.733993 42.609183 1.787555 29.976789 -0.965800 -0.000200 0.090300 -0.248000 -0.199638 0.917544 6.555471 0.610671 2.895156 -3.011742 -4.080787 1.591958 9.975845 -3.008812 -2.699972 -12.344879 0.953373 -2.888802 16.958070 -1.537000 -1.171900 4.622300 -4.578259 -3.460240 3.018115 -76.547558 -1.209097 26.968475 12.419224 -25.628131 -3.244389 0.483906 1.054706 32.568452 17.483496 -7.661330 -2.804300 -7.125000 0.000000 0.000000 -6.655000 20.721800 3.895700 5.842319 3.751872 3.849370 78.726757 -1.526363 19.832241 -12.541649 32.836053 -3.093982 0.215452 -1.968920 4.560906 -6.937380 4.727352 -0.855600 7.125000 0.000000 0.000000 14.223200 -23.280400 7.674900 
0.494651 16.769657 2.875280 -176.104093 5.554616 -173.999385 -4.912560 -2.275330 -0.951945 -8.451682 1.638883 -27.075416 6.403722 14.125974 43.894834 0.596380 -10.632409 -13.090827 0.016500 -0.828500 -2.276900 3.302482 2.309200 -1.402617 19.035403 -8.966536 -28.527131 -7.087247 -13.708471 42.520153 1.601656 29.355024 -1.679633 -0.000500 0.145200 -0.398900 -0.317032 0.960897 6.680339 0.589118 2.965625 -3.005612 -4.056078 1.631867 9.937615 -3.169258 -2.723014 -12.371880 1.149023 -2.950003 16.962929 -1.424600 -1.199100 4.636200 -4.601188 -3.492837 3.026391 -76.492584 -1.209922 26.963972 12.817262 -26.061068 -3.406294 0.497136 1.108124 32.641523 18.572438 -7.718971 -3.032500 -7.125000 0.000000 0.000000 -5.857300 20.534100 3.448400 5.863194 3.753146 3.842712 78.718498 -1.777671 20.247359 -12.971317 33.236679 -3.192453 0.225062 -1.989343 4.179384 -6.929522 4.755483 -0.860900 7.125000 0.000000 0.000000 14.225400 -23.231300 7.692700 
0.472435 16.769389 2.870980 -175.985066 5.539779 -174.041344 -4.897971 -2.275273 -0.948212 -8.411727 1.694507 -27.042487 6.408672 14.136078 43.926194 0.591963 -10.783177 -13.073928 0.017400 -0.851100 -2.339300 3.274414 2.308884 -1.415798 19.069924 -8.382201 -28.123040 -7.076878 -13.687496 42.428456 1.434747 28.794832 -2.374856 -0.001600 0.255900 -0.703000 -0.421526 1.005728 6.804471 0.568360 3.031811 -3.006513 -4.038329 1.668913 9.868696 -3.328307 -2.749428 -12.371025 1.348610 -3.021678 16.984583 -1.310900 -1.231500 4.651800 -4.622573 -3.532348 3.034640 -76.432708 -1.151192 26.908199 13.203106 -26.482746 -3.572998 0.511896 1.161638 32.877317 19.773471 -7.772936 -3.288000 -7.125000 0.000000 0.000000 -4.978900 20.335300 2.949400 5.883372 3.761172 3.833589 78.705560 -2.069491 20.641546 -13.384949 33.620122 -3.288716 0.228300 -2.005156 3.805406 -6.935840 4.864920 -0.876900 7.125000 0.000000 0.000000 14.214700 -23.106600 7.728700 
0.449414 16.768672 2.866322 -175.852577 5.500675 -174.106720 -4.882705 -2.278576 -0.944109 -8.363339 1.775365 -26.991192 6.410456 14.145188 43.947431 0.586101 -10.935234 -13.046772 0.018000 -0.866000 -2.380000 3.243821 2.310665 -1.431448 19.114347 -7.762963 -27.675492 -7.067722 -13.670490 42.342166 1.264591 28.190925 -3.050967 -0.002200 0.301900 -0.829500 -0.492148 1.048467 6.946061 0.549370 3.091657 -3.010178 -4.035238 1.705596 9.777095 -3.481155 -2.769311 -12.327269 1.553888 -3.091471 17.007539 -1.195300 -1.262600 4.657100 -4.644882 -3.576138 3.044929 -76.351104 -1.072174 26.881000 13.579958 -26.895872 -3.743020 0.527504 1.213849 33.099735 21.043352 -7.868666 -3.581100 -7.125000 0.000000 0.000000 -4.054800 20.079200 2.422300 5.906898 3.774067 3.824107 78.693130 -2.404123 21.045850 -13.839390 34.035648 -3.397071 0.237732 -2.025205 3.512952 -6.934495 4.884606 -0.882000 7.125000 0.000000 0.000000 14.211300 -23.066400 7.740300 
0.426750 16.769478 2.861932 -175.765366 5.432494 -174.185078 -4.864255 -2.280005 -0.940407 -8.364742 1.820806 -26.914649 6.409055 14.149427 43.948541 0.577542 -11.110308 -12.988739 0.016500 -0.830200 -2.281800 3.214417 2.314267 -1.446259 19.109836 -7.025279 -27.169773 -7.062018 -13.657761 42.274394 1.056842 27.451697 -3.976585 -0.005400 0.474200 -1.302900 -0.607804 1.075455 7.085369 0.528695 3.130241 -3.016801 -4.025154 1.728311 9.672117 -3.600795 -2.773755 -12.238291 1.751305 -3.145834 17.009934 -1.092500 -1.284400 4.641100 -4.668392 -3.621434 3.056047 -76.271672 -0.976123 26.783456 13.942246 -27.292381 -3.914461 0.540131 1.264410 33.407332 22.351838 -7.907648 -3.870400 -7.125000 0.000000 0.000000 -3.101800 19.874700 1.865300 5.941745 3.791171 3.816066 78.651455 -2.784489 21.560715 -14.409510 34.544411 -3.536395 0.260519 -2.054142 3.186593 -6.915927 4.740434 -0.866800 7.125000 0.000000 0.000000 14.226100 -23.178300 7.711100 
0.403370 16.770195 2.856826 -175.661871 5.350688 -174.274542 -4.844210 -2.281452 -0.937877 -8.353745 1.819731 -26.795270 6.404473 14.152034 43.936899 0.571610 -11.228829 -12.951752 0.014200 -0.769000 -2.113400 3.181381 2.317152 -1.461687 19.120832 -6.164858 -26.604462 -7.062503 -13.649575 42.225058 0.834825 26.617097 -4.946264 -0.010400 0.657500 -1.806800 -0.692977 1.104208 7.217671 0.509794 3.170106 -3.023979 -4.025386 1.752155 9.573844 -3.663144 -2.786816 -12.192189 1.897328 -3.201119 17.047983 -1.024300 -1.306500 4.652700 -4.687436 -3.656308 3.063367 -76.203953 -0.897632 26.653786 14.277875 -27.663333 -4.082972 0.555356 1.310773 33.763906 23.700896 -8.009381 -4.204400 -7.125000 0.000000 0.000000 -2.126800 19.591200 1.291400 5.977203 3.813675 3.807949 78.598677 -3.135580 22.041805 -14.951085 35.022488 -3.672244 0.282631 -2.079754 2.979118 -6.900276 4.586192 -0.850500 7.125000 0.000000 0.000000 14.238100 -23.303700 7.675500 
0.379991 16.771897 2.851810 -175.590671 5.232070 -174.371910 -4.821676 -2.281690 -0.936935 -8.381591 1.816968 -26.672173 6.395889 14.150101 43.904541 0.561076 -11.378091 -12.867868 0.012100 -0.710600 -1.952700 3.148152 2.319404 -1.476339 19.102369 -5.114494 -25.973776 -7.071659 -13.647751 42.209062 0.569851 25.606324 -6.212515 -0.020400 0.921600 -2.533000 -0.796960 1.112326 7.331407 0.491791 3.186228 -3.027780 -4.019192 1.763714 9.505681 -3.732588 -2.786788 -12.182896 2.060563 -3.236957 17.082610 -0.947800 -1.318000 4.672400 -4.704182 -3.683462 3.069700 -76.182342 -0.891516 26.373961 14.549713 -27.968440 -4.236432 0.574271 1.350977 34.266153 25.080565 -8.162441 -4.581500 -7.125000 0.000000 0.000000 -1.138400 19.240900 0.699800 6.008267 3.825877 3.801548 78.524243 -3.407911 22.535000 -15.451782 35.460298 -3.800596 0.303462 -2.103363 2.762360 -6.903602 4.424488 -0.835100 7.125000 0.000000 0.000000 14.238600 -23.437800 7.630300 
